<svg width="95.2px" height="120.6px" xmlns="http://www.w3.org/2000/svg"
  viewBox="202.396875 12.200000000000003 95.20625 125.6" style="background: rgba(0, 0, 0, 0)"
  preserveAspectRatio="xMidYMid">
  <defs>
    <filter id="editing-vr">
      <feFlood flood-color="#f00" flood-opacity="0.7" result="c1"></feFlood>
      <feFlood flood-color="#00f" flood-opacity="0.7" result="c3"></feFlood>
      <feComposite operator="in" in="c1" in2="SourceAlpha" result="text-c1"></feComposite>
      <feComposite operator="in" in="c3" in2="SourceAlpha" result="text-c3"></feComposite>
      <feOffset in="text-c1" dx="9" dy="20" result="text1"></feOffset>
      <feOffset in="text-c3" dx="-9" dy="-20" result="text3"></feOffset>
      <feBlend in="SourceGraphic" in2="text1" mode="multiply" result="text4"></feBlend>
      <feBlend in="text4" in2="text3" mode="multiply"></feBlend>
    </filter>
  </defs>
  <g filter="url(#editing-vr)">
    <g transform="translate(221.7,104.1)">
      <path
        d="M 7.2 -13.5 L 7.2 -56.9 L 14.8 -56.9 L 14.8 -13.5 L 7.2 -13.5 Z M 43.4 0.7 L 40.5 -4.3 L 40.5 -4.3 Q 43.3 -5.7 44.9 -7.4 L 44.9 -7.4 L 44.9 -7.4 Q 46.4 -9.1 47.2 -10.9 L 47.2 -10.9 L 47.2 -10.9 Q 47.9 -12.6 48 -14.4 L 48 -14.4 L 48 -14.4 Q 48.1 -16.2 48.1 -17.7 L 48.1 -17.7 L 48.1 -18.6 L 48.1 -18.6 Q 46.6 -15.9 43.8 -14.5 L 43.8 -14.5 L 43.8 -14.5 Q 41 -13 37.3 -13 L 37.3 -13 L 37.3 -13 Q 33.2 -13 30.4 -14.6 L 30.4 -14.6 L 30.4 -14.6 Q 27.5 -16.1 25.6 -19 L 25.6 -19 L 25.6 -19 Q 23.8 -21.8 22.9 -25.8 L 22.9 -25.8 L 22.9 -25.8 Q 22 -29.7 22 -34.6 L 22 -34.6 L 22 -34.6 Q 22 -39.6 23.2 -43.8 L 23.2 -43.8 L 23.2 -43.8 Q 24.3 -48 26.7 -51 L 26.7 -51 L 26.7 -51 Q 29 -54.1 32.6 -55.8 L 32.6 -55.8 L 32.6 -55.8 Q 36.1 -57.4 41 -57.4 L 41 -57.4 L 41 -57.4 Q 45.3 -57.4 48.2 -56 L 48.2 -56 L 48.2 -56 Q 51.1 -54.6 52.8 -52.9 L 52.8 -52.9 L 49 -48 L 49 -48 Q 47.4 -49.7 45 -50.6 L 45 -50.6 L 45 -50.6 Q 42.6 -51.6 40.1 -51.6 L 40.1 -51.6 L 40.1 -51.6 Q 37.3 -51.6 35.5 -50.3 L 35.5 -50.3 L 35.5 -50.3 Q 33.6 -49 32.5 -46.8 L 32.5 -46.8 L 32.5 -46.8 Q 31.3 -44.6 30.8 -41.6 L 30.8 -41.6 L 30.8 -41.6 Q 30.3 -38.6 30.3 -35.2 L 30.3 -35.2 L 30.3 -35.2 Q 30.3 -31.6 30.8 -28.6 L 30.8 -28.6 L 30.8 -28.6 Q 31.2 -25.6 32.2 -23.5 L 32.2 -23.5 L 32.2 -23.5 Q 33.2 -21.4 34.8 -20.2 L 34.8 -20.2 L 34.8 -20.2 Q 36.4 -19 38.7 -19 L 38.7 -19 L 38.7 -19 Q 40.2 -19 41.7 -19.7 L 41.7 -19.7 L 41.7 -19.7 Q 43.3 -20.3 44.5 -21.6 L 44.5 -21.6 L 44.5 -21.6 Q 45.8 -22.8 46.5 -24.6 L 46.5 -24.6 L 46.5 -24.6 Q 47.3 -26.4 47.3 -28.7 L 47.3 -28.7 L 47.3 -34.5 L 54.8 -34.5 L 54.8 -15.3 L 54.8 -15.3 Q 54.8 -11.4 53.7 -8.7 L 53.7 -8.7 L 53.7 -8.7 Q 52.7 -6.1 51.1 -4.4 L 51.1 -4.4 L 51.1 -4.4 Q 49.4 -2.6 47.4 -1.4 L 47.4 -1.4 L 47.4 -1.4 Q 45.4 -0.2 43.4 0.7 L 43.4 0.7 Z"
        fill="#444444"></path>
    </g>
  </g>
  <style>text {
    font-size: 64px;
    font-family: Arial Black;
    dominant-baseline: central;
    text-anchor: middle;
    }</style>
</svg>